# Blender 5.0.1
# www.blender.org
mtllib chen_iris.mtl
o S_actor_chen_iris_01_lod0
v -1.259173 59.769081 2.446080
v -1.227114 59.780624 2.454340
v -1.221853 59.736938 2.455701
v -1.266773 59.736137 2.444120
v -1.195817 59.763023 2.462408
v -1.244967 59.707798 2.449744
v -1.178658 59.729092 2.466828
v -1.208670 59.695618 2.459100
v -1.183746 59.704315 2.465522
v 1.827715 59.769081 2.304385
v 1.859774 59.780632 2.304385
v 1.865035 59.736938 2.304385
v 1.820115 59.736137 2.304385
v 1.891071 59.763023 2.304385
v 1.841921 59.707798 2.304385
v 1.908230 59.729092 2.304385
v 1.878218 59.695618 2.304385
v 1.903142 59.704315 2.304385
v -1.974969 59.835999 2.322690
v -1.898920 59.816658 2.341383
v -1.966412 59.752651 2.297890
v -2.043172 59.784065 2.283812
v -1.843873 59.780354 2.346650
v -2.088952 59.724930 2.249130
v -1.889499 59.721523 2.311962
v -2.033707 59.688423 2.254585
v -1.957856 59.669300 2.273096
v 1.151028 59.835999 2.506547
v 1.227076 59.816658 2.481021
v 1.159584 59.752651 2.488538
v 1.082824 59.784065 2.517360
v 1.282124 59.780354 2.457515
v 1.037044 59.724930 2.519555
v 1.236497 59.721523 2.459565
v 1.092289 59.688423 2.496145
v 1.168141 59.669300 2.470535
v -1.494184 60.182713 2.467161
v -1.525645 60.191154 2.456850
v -1.494171 60.199566 2.469398
v -1.502625 60.168110 2.462160
v -1.502591 60.214176 2.468273
v -1.517234 60.159691 2.455737
v -1.517187 60.222618 2.464089
v -1.534095 60.159702 2.449611
v -1.534048 60.222630 2.457969
v -1.548691 60.168148 2.445433
v -1.548657 60.214214 2.451547
v -1.557111 60.182755 2.444308
v -1.557098 60.199608 2.446545
v 1.494184 60.182713 2.467161
v 1.494171 60.199566 2.469398
v 1.525645 60.191154 2.456850
v 1.502625 60.168110 2.462160
v 1.502591 60.214176 2.468273
v 1.517234 60.159691 2.455737
v 1.517187 60.222618 2.464089
v 1.534095 60.159702 2.449611
v 1.534048 60.222630 2.457969
v 1.548691 60.168148 2.445433
v 1.548657 60.214214 2.451547
v 1.557111 60.182755 2.444308
v 1.557098 60.199608 2.446545
v -1.692082 60.069065 2.348331
v -1.725713 60.010365 2.326554
v -1.960307 60.137848 2.380345
v -1.881397 60.251434 2.426438
v -1.988362 59.999805 2.340893
v -1.645953 60.111828 2.370742
v -1.785154 60.328758 2.470469
v -1.741891 59.943260 2.307517
v -1.986589 59.882107 2.311666
v -1.587740 60.138184 2.388866
v -1.665234 60.374073 2.503723
v -1.741814 59.885483 2.294098
v -1.961731 59.769123 2.289593
v -1.526418 60.147614 2.402606
v -1.545511 60.386757 2.529654
v -1.464598 60.143250 2.415118
v -1.430131 60.375183 2.551733
v -1.519955 60.131050 2.390982
v -1.533585 60.120514 2.385171
v -1.519955 59.944736 2.360964
v -1.545479 60.101421 2.377237
v -1.564586 60.064926 2.362808
v -1.584069 60.023327 2.347206
v -1.598493 59.980064 2.334736
v -1.506325 60.120514 2.390698
v -1.603747 59.944736 2.326966
v -1.494431 60.101421 2.387578
v -1.598493 59.909412 2.322158
v -1.730468 59.829494 2.284168
v -1.913021 59.663120 2.275757
v -1.709542 59.775169 2.278399
v -1.842254 59.569363 2.271300
v -1.407027 60.119152 2.423578
v -1.325471 60.323284 2.565526
v -1.584070 59.866150 2.317967
v -1.677469 59.723869 2.277311
v -1.753865 59.491501 2.276138
v -1.475324 60.064926 2.380889
v -1.358967 60.076969 2.425682
v -1.238130 60.234501 2.566621
v -1.564587 59.824543 2.315077
v -1.632986 59.682098 2.280752
v -1.635287 59.442848 2.295665
v -1.455840 60.023327 2.373185
v -1.327491 60.016762 2.421340
v -1.173934 60.121319 2.555791
v -1.545480 59.788052 2.313268
v -1.574680 59.659248 2.290083
v -1.511871 59.425808 2.321559
v -1.441417 59.980064 2.366557
v -1.533586 59.768963 2.313389
v -1.436163 59.944736 2.360915
v -1.312122 59.948875 2.412070
v -1.138709 59.996231 2.533821
v -1.511056 59.653698 2.303060
v -1.408973 59.442806 2.345482
v -1.311156 59.879215 2.398457
v -1.130314 59.870892 2.506118
v -1.441417 59.909412 2.353973
v -1.318670 59.816769 2.384246
v -1.146603 59.757023 2.478088
v -1.455840 59.866150 2.343934
v -1.337917 59.762039 2.367930
v -1.185714 59.654408 2.446757
v -1.475323 59.824543 2.333152
v -1.367667 59.713779 2.348827
v -1.245784 59.562843 2.409155
v -1.494426 59.788059 2.323609
v -1.409097 59.679417 2.329705
v -1.321855 59.489826 2.372871
v -1.506324 59.768963 2.318910
v -1.456848 59.660309 2.315288
v -1.519955 59.758427 2.314889
v 1.692082 60.069065 2.348331
v 1.881397 60.251434 2.426438
v 1.960307 60.137848 2.380345
v 1.725713 60.010365 2.326554
v 1.988362 59.999805 2.340893
v 1.645953 60.111828 2.370742
v 1.785154 60.328758 2.470469
v 1.741891 59.943260 2.307517
v 1.986589 59.882107 2.311666
v 1.587740 60.138184 2.388866
v 1.665234 60.374073 2.503723
v 1.741814 59.885483 2.294098
v 1.961731 59.769123 2.289593
v 1.526418 60.147614 2.402606
v 1.545511 60.386757 2.529654
v 1.464598 60.143250 2.415118
v 1.430131 60.375183 2.551733
v 1.519955 60.131050 2.390982
v 1.533585 60.120514 2.385171
v 1.519955 59.944736 2.360964
v 1.545479 60.101421 2.377237
v 1.564586 60.064926 2.362808
v 1.584069 60.023327 2.347206
v 1.598493 59.980064 2.334736
v 1.506325 60.120514 2.390698
v 1.603747 59.944736 2.326966
v 1.494431 60.101421 2.387578
v 1.598493 59.909412 2.322158
v 1.730468 59.829494 2.284168
v 1.913021 59.663120 2.275757
v 1.709542 59.775169 2.278399
v 1.842254 59.569363 2.271300
v 1.407027 60.119152 2.423578
v 1.325471 60.323284 2.565526
v 1.584070 59.866150 2.317967
v 1.677469 59.723869 2.277311
v 1.753865 59.491501 2.276138
v 1.475324 60.064926 2.380889
v 1.358967 60.076969 2.425682
v 1.238130 60.234501 2.566621
v 1.564587 59.824543 2.315077
v 1.632986 59.682098 2.280752
v 1.635287 59.442848 2.295665
v 1.455840 60.023327 2.373185
v 1.327491 60.016762 2.421340
v 1.173934 60.121319 2.555791
v 1.545480 59.788052 2.313268
v 1.574680 59.659248 2.290083
v 1.511871 59.425808 2.321559
v 1.441417 59.980064 2.366557
v 1.533586 59.768963 2.313389
v 1.436163 59.944736 2.360915
v 1.312122 59.948875 2.412070
v 1.138709 59.996231 2.533821
v 1.511056 59.653698 2.303060
v 1.408973 59.442806 2.345482
v 1.311156 59.879215 2.398457
v 1.130314 59.870892 2.506118
v 1.441417 59.909412 2.353973
v 1.318670 59.816769 2.384246
v 1.146603 59.757023 2.478088
v 1.455840 59.866150 2.343934
v 1.337917 59.762039 2.367930
v 1.185714 59.654408 2.446757
v 1.475323 59.824543 2.333152
v 1.367667 59.713779 2.348827
v 1.245784 59.562843 2.409155
v 1.494426 59.788059 2.323609
v 1.409097 59.679417 2.329705
v 1.321855 59.489826 2.372871
v 1.506324 59.768963 2.318910
v 1.456848 59.660309 2.315288
v 1.519955 59.758427 2.314889
vn -0.2496 0.0001 0.9684
vn -0.2496 0.0001 0.9683
vn -0.2497 -0.0000 0.9683
vn -0.2495 0.0001 0.9684
vn -0.2494 0.0001 0.9684
vn -0.2496 -0.0000 0.9684
vn -0.0000 -0.0000 1.0000
vn -0.2922 -0.3039 0.9068
vn -0.2947 -0.3046 0.9057
vn -0.2944 -0.3002 0.9073
vn -0.2905 -0.3031 0.9076
vn -0.2905 -0.3089 0.9056
vn -0.2915 -0.3058 0.9064
vn -0.2893 -0.3044 0.9076
vn -0.2942 -0.3029 0.9065
vn -0.2924 -0.3001 0.9080
vn 0.2793 -0.1792 0.9433
vn 0.2765 -0.1807 0.9439
vn 0.2777 -0.1756 0.9445
vn 0.2812 -0.1781 0.9430
vn 0.2802 -0.1847 0.9420
vn 0.2797 -0.1814 0.9428
vn 0.2824 -0.1794 0.9424
vn 0.2772 -0.1786 0.9441
vn 0.2795 -0.1752 0.9440
vn -0.3388 -0.1235 0.9327
vn -0.3388 -0.1236 0.9327
vn -0.3389 -0.1236 0.9327
vn -0.3389 -0.1235 0.9327
vn -0.3387 -0.1235 0.9328
vn -0.3387 -0.1237 0.9327
vn -0.3387 -0.1236 0.9328
vn -0.3387 -0.1236 0.9327
vn 0.3388 -0.1236 0.9327
vn 0.3389 -0.1235 0.9327
vn 0.3387 -0.1235 0.9327
vn 0.3387 -0.1236 0.9327
vn 0.3388 -0.1235 0.9327
vn 0.0318 -0.3427 0.9389
vn -0.0332 -0.2952 0.9549
vn -0.0572 -0.3582 0.9319
vn -0.0270 -0.4192 0.9075
vn 0.0679 -0.2707 0.9603
vn -0.0732 -0.4124 0.9080
vn -0.0656 -0.4515 0.8899
vn -0.0256 -0.2441 0.9694
vn 0.0740 -0.2136 0.9741
vn -0.0851 -0.4708 0.8781
vn -0.1121 -0.4657 0.8778
vn -0.0349 -0.1978 0.9796
vn 0.0631 -0.1479 0.9870
vn -0.1516 -0.5263 0.8367
vn -0.1855 -0.4728 0.8614
vn -0.2628 -0.4492 0.8539
vn -0.2846 -0.4562 0.8432
vn -0.1769 -0.3977 0.9003
vn -0.1823 -0.3013 0.9359
vn -0.1891 -0.1915 0.9631
vn -0.2151 -0.2698 0.9386
vn -0.2266 -0.2461 0.9424
vn -0.2242 -0.2192 0.9496
vn -0.2296 -0.1896 0.9546
vn -0.1846 -0.2721 0.9444
vn -0.2451 -0.1765 0.9533
vn -0.1841 -0.2813 0.9418
vn -0.2565 -0.1755 0.9505
vn -0.0586 -0.1493 0.9870
vn 0.0326 -0.0793 0.9963
vn -0.0891 -0.1063 0.9903
vn -0.0157 -0.0194 0.9997
vn -0.3245 -0.3871 0.8631
vn -0.3833 -0.4210 0.8221
vn -0.2559 -0.1782 0.9501
vn -0.1188 -0.0736 0.9902
vn -0.0819 0.0295 0.9962
vn -0.1805 -0.2624 0.9479
vn -0.3859 -0.3371 0.8587
vn -0.4683 -0.3583 0.8077
vn -0.2517 -0.1770 0.9515
vn -0.1554 -0.0449 0.9868
vn -0.1550 0.0685 0.9855
vn -0.2024 -0.2321 0.9514
vn -0.4357 -0.2705 0.8585
vn -0.5064 -0.2883 0.8126
vn -0.2614 -0.1688 0.9504
vn -0.1923 -0.0267 0.9810
vn -0.2083 0.0797 0.9748
vn -0.2217 -0.1978 0.9548
vn -0.2540 -0.1664 0.9528
vn -0.2204 -0.1758 0.9594
vn -0.4497 -0.2138 0.8672
vn -0.5137 -0.2242 0.8281
vn -0.2107 -0.0377 0.9768
vn -0.2654 0.0742 0.9613
vn -0.4393 -0.1675 0.8826
vn -0.5099 -0.1621 0.8448
vn -0.2091 -0.1675 0.9634
vn -0.4225 -0.1323 0.8966
vn -0.5030 -0.0971 0.8588
vn -0.1992 -0.1705 0.9650
vn -0.4058 -0.1085 0.9075
vn -0.4895 -0.0538 0.8704
vn -0.1877 -0.1765 0.9662
vn -0.3797 -0.0904 0.9207
vn -0.4495 -0.0073 0.8933
vn -0.1611 -0.1754 0.9712
vn -0.3211 -0.0558 0.9454
vn -0.3597 0.0450 0.9320
vn -0.1585 -0.1627 0.9739
vn -0.2636 -0.0101 0.9646
vn -0.1946 -0.1813 0.9640
vn -0.0318 -0.3427 0.9389
vn 0.0270 -0.4192 0.9075
vn 0.0572 -0.3582 0.9319
vn 0.0332 -0.2952 0.9549
vn -0.0679 -0.2707 0.9603
vn 0.0732 -0.4125 0.9080
vn 0.0656 -0.4515 0.8899
vn 0.0256 -0.2441 0.9694
vn -0.0740 -0.2136 0.9741
vn 0.0851 -0.4708 0.8781
vn 0.1121 -0.4657 0.8778
vn 0.0348 -0.1978 0.9796
vn -0.0631 -0.1479 0.9870
vn 0.1516 -0.5263 0.8367
vn 0.1855 -0.4728 0.8614
vn 0.2628 -0.4492 0.8539
vn 0.2846 -0.4562 0.8432
vn 0.1769 -0.3977 0.9003
vn 0.1823 -0.3013 0.9359
vn 0.1891 -0.1915 0.9631
vn 0.2150 -0.2698 0.9386
vn 0.2266 -0.2461 0.9424
vn 0.2242 -0.2192 0.9496
vn 0.2296 -0.1896 0.9546
vn 0.1846 -0.2721 0.9444
vn 0.2451 -0.1765 0.9533
vn 0.1841 -0.2813 0.9418
vn 0.2565 -0.1755 0.9505
vn 0.0586 -0.1494 0.9870
vn -0.0326 -0.0793 0.9963
vn 0.0891 -0.1063 0.9903
vn 0.0157 -0.0194 0.9997
vn 0.3245 -0.3871 0.8631
vn 0.3833 -0.4210 0.8221
vn 0.2559 -0.1782 0.9501
vn 0.1188 -0.0736 0.9902
vn 0.0819 0.0295 0.9962
vn 0.1805 -0.2624 0.9479
vn 0.3859 -0.3371 0.8587
vn 0.4683 -0.3583 0.8077
vn 0.2517 -0.1770 0.9515
vn 0.1554 -0.0449 0.9868
vn 0.1550 0.0685 0.9855
vn 0.2025 -0.2321 0.9514
vn 0.4357 -0.2705 0.8585
vn 0.5064 -0.2883 0.8126
vn 0.2613 -0.1687 0.9504
vn 0.1923 -0.0267 0.9810
vn 0.2083 0.0797 0.9748
vn 0.2217 -0.1978 0.9548
vn 0.2540 -0.1664 0.9528
vn 0.2204 -0.1758 0.9594
vn 0.4497 -0.2139 0.8672
vn 0.5137 -0.2242 0.8281
vn 0.2107 -0.0377 0.9768
vn 0.2654 0.0742 0.9613
vn 0.4393 -0.1675 0.8826
vn 0.5099 -0.1621 0.8448
vn 0.2091 -0.1675 0.9634
vn 0.4225 -0.1323 0.8966
vn 0.5030 -0.0971 0.8588
vn 0.1992 -0.1705 0.9650
vn 0.4058 -0.1085 0.9075
vn 0.4895 -0.0538 0.8704
vn 0.1877 -0.1765 0.9662
vn 0.3798 -0.0904 0.9207
vn 0.4495 -0.0073 0.8933
vn 0.1611 -0.1754 0.9712
vn 0.3211 -0.0558 0.9454
vn 0.3597 0.0450 0.9320
vn 0.1585 -0.1627 0.9739
vn 0.2636 -0.0101 0.9646
vn 0.1946 -0.1813 0.9640
vt 0.910926 0.086937
vt 0.845216 0.088809
vt 0.854988 0.038123
vt 0.901908 0.019353
vt 0.878329 0.131834
vt 0.948706 0.045739
vt 0.932330 0.149997
vt 0.974936 0.097480
vt 0.967758 0.136824
vt 0.910926 0.086937
vt 0.845216 0.088809
vt 0.854987 0.038122
vt 0.901908 0.019353
vt 0.878329 0.131834
vt 0.948706 0.045739
vt 0.932330 0.149997
vt 0.974936 0.097480
vt 0.967758 0.136823
vt 0.105871 0.076410
vt 0.162135 0.108940
vt 0.113667 0.133179
vt 0.058924 0.108930
vt 0.193543 0.076410
vt 0.018196 0.076410
vt 0.152963 0.044051
vt 0.049712 0.043748
vt 0.098073 0.019652
vt 0.105871 0.076411
vt 0.193543 0.076411
vt 0.018196 0.076411
vt 0.840418 0.936183
vt 0.912982 0.916786
vt 0.840447 0.897318
vt 0.859909 0.863644
vt 0.859830 0.969874
vt 0.893590 0.844248
vt 0.893482 0.989342
vt 0.932465 0.844265
vt 0.932358 0.989359
vt 0.966117 0.863733
vt 0.966038 0.969963
vt 0.985530 0.897424
vt 0.985501 0.936289
vt 0.932561 0.749739
vt 0.719564 0.626765
vt 0.679273 0.679273
vt 0.853185 0.853185
vt 0.982459 0.629274
vt 0.626765 0.719564
vt 0.749739 0.932561
vt 0.744892 0.565619
vt 0.994403 0.500000
vt 0.565619 0.744892
vt 0.629274 0.982459
vt 0.753531 0.500000
vt 0.982459 0.370725
vt 0.500000 0.753531
vt 0.500000 0.996442
vt 0.434381 0.744892
vt 0.370725 0.982459
vt 0.500000 0.732692
vt 0.514608 0.722225
vt 0.500000 0.551813
vt 0.527356 0.703376
vt 0.547834 0.667393
vt 0.568716 0.626810
vt 0.584175 0.585292
vt 0.485391 0.722225
vt 0.589805 0.551813
vt 0.472644 0.703376
vt 0.584175 0.515578
vt 0.744892 0.434381
vt 0.932561 0.250261
vt 0.719564 0.373234
vt 0.853185 0.146815
vt 0.373234 0.719564
vt 0.250260 0.932561
vt 0.568716 0.470957
vt 0.679273 0.320726
vt 0.749739 0.067439
vt 0.452166 0.667393
vt 0.320726 0.679273
vt 0.146815 0.853185
vt 0.547835 0.427715
vt 0.626765 0.280436
vt 0.629274 0.017541
vt 0.431284 0.626810
vt 0.280436 0.626765
vt 0.067439 0.749739
vt 0.527357 0.389929
vt 0.565619 0.255108
vt 0.500000 0.006726
vt 0.415825 0.585292
vt 0.514609 0.370272
vt 0.410195 0.551813
vt 0.255108 0.565619
vt 0.017540 0.629274
vt 0.500000 0.246467
vt 0.370725 0.017540
vt 0.246469 0.500000
vt 0.007120 0.500000
vt 0.415825 0.515578
vt 0.255108 0.434383
vt 0.017540 0.370725
vt 0.431284 0.470957
vt 0.280436 0.373234
vt 0.067439 0.250260
vt 0.452165 0.427715
vt 0.320726 0.320726
vt 0.146815 0.146815
vt 0.472639 0.389929
vt 0.373234 0.280436
vt 0.250261 0.067439
vt 0.485391 0.370272
vt 0.434381 0.255108
vt 0.500000 0.359362
vt 0.500000 0.732709
vt 0.500000 0.359250
s 1
usemtl M_actor_chen_iris_01
f 3/1/1 2/2/1 1/3/2
f 3/1/1 1/3/2 4/4/3
f 3/1/1 5/5/4 2/2/1
f 6/6/2 3/1/1 4/4/3
f 7/7/5 5/5/4 3/1/1
f 8/8/6 3/1/1 6/6/2
f 9/9/4 7/7/5 3/1/1
f 8/8/6 9/9/4 3/1/1
f 12/10/7 11/11/7 10/12/7
f 12/10/7 10/12/7 13/13/7
f 12/10/7 14/14/7 11/11/7
f 15/15/7 12/10/7 13/13/7
f 16/16/7 14/14/7 12/10/7
f 17/17/7 12/10/7 15/15/7
f 18/18/7 16/16/7 12/10/7
f 17/17/7 18/18/7 12/10/7
f 21/19/8 20/20/9 19/21/10
f 21/19/8 19/21/10 22/22/11
f 21/19/8 23/23/12 20/20/9
f 24/24/13 21/19/8 22/22/11
f 25/25/14 23/23/12 21/19/8
f 26/26/15 21/19/8 24/24/13
f 27/27/16 25/25/14 21/19/8
f 26/26/15 27/27/16 21/19/8
f 30/28/17 29/20/18 28/21/19
f 30/28/17 28/21/19 31/22/20
f 30/28/17 32/29/21 29/20/18
f 33/30/22 30/28/17 31/22/20
f 34/25/23 32/29/21 30/28/17
f 35/26/24 30/28/17 33/30/22
f 36/27/25 34/25/23 30/28/17
f 35/26/24 36/27/25 30/28/17
f 39/31/26 38/32/27 37/33/27
f 38/32/27 40/34/28 37/33/27
f 41/35/29 38/32/27 39/31/26
f 42/36/27 40/34/28 38/32/27
f 43/37/30 38/32/27 41/35/29
f 38/32/27 44/38/31 42/36/27
f 45/39/32 38/32/27 43/37/30
f 46/40/33 44/38/31 38/32/27
f 45/39/32 47/41/33 38/32/27
f 48/42/26 46/40/33 38/32/27
f 49/43/27 38/32/27 47/41/33
f 49/43/27 48/42/26 38/32/27
f 52/32/34 51/31/35 50/33/34
f 53/34/34 52/32/34 50/33/34
f 52/32/34 54/35/35 51/31/35
f 53/34/34 55/36/34 52/32/34
f 52/32/34 56/37/36 54/35/35
f 57/38/37 52/32/34 55/36/34
f 52/32/34 58/39/37 56/37/36
f 57/38/37 59/40/37 52/32/34
f 60/41/34 58/39/37 52/32/34
f 59/40/37 61/42/38 52/32/34
f 52/32/34 62/43/34 60/41/34
f 61/42/38 62/43/34 52/32/34
f 65/44/39 64/45/40 63/46/41
f 66/47/42 65/44/39 63/46/41
f 65/44/39 67/48/43 64/45/40
f 66/47/42 63/46/41 68/49/44
f 69/50/45 66/47/42 68/49/44
f 67/48/43 70/51/46 64/45/40
f 70/51/46 67/48/43 71/52/47
f 69/50/45 68/49/44 72/53/48
f 73/54/49 69/50/45 72/53/48
f 74/55/50 70/51/46 71/52/47
f 74/55/50 71/52/47 75/56/51
f 73/54/49 72/53/48 76/57/52
f 77/58/53 73/54/49 76/57/52
f 76/57/52 78/59/54 77/58/53
f 78/59/54 79/60/55 77/58/53
f 76/57/52 72/53/48 80/61/56
f 80/61/56 78/59/54 76/57/52
f 72/53/48 68/49/44 81/62/57
f 72/53/48 81/62/57 80/61/56
f 80/61/56 81/62/57 82/63/58
f 68/49/44 83/64/59 81/62/57
f 81/62/57 83/64/59 82/63/58
f 68/49/44 63/46/41 83/64/59
f 63/46/41 84/65/60 83/64/59
f 83/64/59 84/65/60 82/63/58
f 63/46/41 64/45/40 84/65/60
f 64/45/40 85/66/61 84/65/60
f 84/65/60 85/66/61 82/63/58
f 64/45/40 70/51/46 85/66/61
f 70/51/46 86/67/62 85/66/61
f 85/66/61 86/67/62 82/63/58
f 86/67/62 70/51/46 74/55/50
f 82/63/58 87/68/63 80/61/56
f 80/61/56 87/68/63 78/59/54
f 82/63/58 86/67/62 88/69/64
f 88/69/64 86/67/62 74/55/50
f 89/70/65 87/68/63 82/63/58
f 78/59/54 87/68/63 89/70/65
f 82/63/58 88/69/64 90/71/66
f 88/69/64 74/55/50 91/72/67
f 90/71/66 88/69/64 91/72/67
f 91/72/67 74/55/50 75/56/51
f 91/72/67 75/56/51 92/73/68
f 93/74/69 91/72/67 92/73/68
f 90/71/66 91/72/67 93/74/69
f 93/74/69 92/73/68 94/75/70
f 95/76/71 78/59/54 89/70/65
f 79/60/55 78/59/54 95/76/71
f 96/77/72 79/60/55 95/76/71
f 97/78/73 90/71/66 93/74/69
f 82/63/58 90/71/66 97/78/73
f 98/79/74 93/74/69 94/75/70
f 97/78/73 93/74/69 98/79/74
f 98/79/74 94/75/70 99/80/75
f 95/76/71 89/70/65 100/81/76
f 100/81/76 89/70/65 82/63/58
f 96/77/72 95/76/71 101/82/77
f 101/82/77 95/76/71 100/81/76
f 102/83/78 96/77/72 101/82/77
f 103/84/79 97/78/73 98/79/74
f 82/63/58 97/78/73 103/84/79
f 104/85/80 98/79/74 99/80/75
f 103/84/79 98/79/74 104/85/80
f 104/85/80 99/80/75 105/86/81
f 101/82/77 100/81/76 106/87/82
f 106/87/82 100/81/76 82/63/58
f 102/83/78 101/82/77 107/88/83
f 107/88/83 101/82/77 106/87/82
f 108/89/84 102/83/78 107/88/83
f 109/90/85 103/84/79 104/85/80
f 82/63/58 103/84/79 109/90/85
f 110/91/86 104/85/80 105/86/81
f 109/90/85 104/85/80 110/91/86
f 110/91/86 105/86/81 111/92/87
f 112/93/88 106/87/82 82/63/58
f 107/88/83 106/87/82 112/93/88
f 82/63/58 109/90/85 113/94/89
f 113/94/89 109/90/85 110/91/86
f 114/95/90 112/93/88 82/63/58
f 108/89/84 107/88/83 115/96/91
f 115/96/91 107/88/83 112/93/88
f 115/96/91 112/93/88 114/95/90
f 116/97/92 108/89/84 115/96/91
f 117/98/93 110/91/86 111/92/87
f 113/94/89 110/91/86 117/98/93
f 117/98/93 111/92/87 118/99/94
f 116/97/92 115/96/91 119/100/95
f 119/100/95 115/96/91 114/95/90
f 120/101/96 116/97/92 119/100/95
f 119/100/95 114/95/90 121/102/97
f 121/102/97 114/95/90 82/63/58
f 120/101/96 119/100/95 122/103/98
f 122/103/98 119/100/95 121/102/97
f 123/104/99 120/101/96 122/103/98
f 122/103/98 121/102/97 124/105/100
f 124/105/100 121/102/97 82/63/58
f 123/104/99 122/103/98 125/106/101
f 125/106/101 122/103/98 124/105/100
f 126/107/102 123/104/99 125/106/101
f 124/105/100 127/108/103 125/106/101
f 82/63/58 127/108/103 124/105/100
f 125/106/101 128/109/104 126/107/102
f 127/108/103 128/109/104 125/106/101
f 128/109/104 129/110/105 126/107/102
f 127/108/103 130/111/106 128/109/104
f 82/63/58 130/111/106 127/108/103
f 128/109/104 131/112/107 129/110/105
f 130/111/106 131/112/107 128/109/104
f 131/112/107 132/113/108 129/110/105
f 82/63/58 133/114/109 130/111/106
f 130/111/106 133/114/109 131/112/107
f 131/112/107 134/115/110 132/113/108
f 133/114/109 134/115/110 131/112/107
f 134/115/110 118/99/94 132/113/108
f 134/115/110 117/98/93 118/99/94
f 133/114/109 117/98/93 134/115/110
f 82/63/58 135/116/111 133/114/109
f 133/114/109 135/116/111 117/98/93
f 82/63/58 113/94/89 135/116/111
f 135/116/111 113/94/89 117/98/93
f 138/44/112 137/47/113 136/46/114
f 139/45/115 138/44/112 136/46/114
f 140/48/116 138/44/112 139/45/115
f 136/46/114 137/47/113 141/49/117
f 137/47/113 142/50/118 141/49/117
f 143/51/119 140/48/116 139/45/115
f 140/48/116 143/51/119 144/52/120
f 141/49/117 142/50/118 145/53/121
f 142/50/118 146/54/122 145/53/121
f 143/51/119 147/55/123 144/52/120
f 144/52/120 147/55/123 148/56/124
f 145/53/121 146/54/122 149/57/125
f 146/54/122 150/58/126 149/57/125
f 151/59/127 149/57/125 150/58/126
f 152/60/128 151/59/127 150/58/126
f 145/53/121 149/57/125 153/117/129
f 151/59/127 153/117/129 149/57/125
f 141/49/117 145/53/121 154/62/130
f 154/62/130 145/53/121 153/117/129
f 154/62/130 153/117/129 155/63/131
f 156/64/132 141/49/117 154/62/130
f 156/64/132 154/62/130 155/63/131
f 136/46/114 141/49/117 156/64/132
f 157/65/133 136/46/114 156/64/132
f 157/65/133 156/64/132 155/63/131
f 139/45/115 136/46/114 157/65/133
f 158/66/134 139/45/115 157/65/133
f 158/66/134 157/65/133 155/63/131
f 143/51/119 139/45/115 158/66/134
f 159/67/135 143/51/119 158/66/134
f 159/67/135 158/66/134 155/63/131
f 143/51/119 159/67/135 147/55/123
f 160/68/136 155/63/131 153/117/129
f 151/59/127 160/68/136 153/117/129
f 159/67/135 155/63/131 161/69/137
f 159/67/135 161/69/137 147/55/123
f 160/68/136 162/70/138 155/63/131
f 160/68/136 151/59/127 162/70/138
f 161/69/137 155/63/131 163/71/139
f 147/55/123 161/69/137 164/72/140
f 161/69/137 163/71/139 164/72/140
f 147/55/123 164/72/140 148/56/124
f 148/56/124 164/72/140 165/73/141
f 164/72/140 166/74/142 165/73/141
f 164/72/140 163/71/139 166/74/142
f 165/73/141 166/74/142 167/75/143
f 151/59/127 168/76/144 162/70/138
f 151/59/127 152/60/128 168/76/144
f 152/60/128 169/77/145 168/76/144
f 163/71/139 170/78/146 166/74/142
f 163/71/139 155/63/131 170/78/146
f 166/74/142 171/79/147 167/75/143
f 166/74/142 170/78/146 171/79/147
f 167/75/143 171/79/147 172/80/148
f 162/70/138 168/76/144 173/81/149
f 162/70/138 173/81/149 155/63/131
f 168/76/144 169/77/145 174/82/150
f 168/76/144 174/82/150 173/81/149
f 169/77/145 175/83/151 174/82/150
f 170/78/146 176/84/152 171/79/147
f 170/78/146 155/63/131 176/84/152
f 171/79/147 177/85/153 172/80/148
f 171/79/147 176/84/152 177/85/153
f 172/80/148 177/85/153 178/86/154
f 173/81/149 174/82/150 179/87/155
f 173/81/149 179/87/155 155/63/131
f 174/82/150 175/83/151 180/88/156
f 174/82/150 180/88/156 179/87/155
f 175/83/151 181/89/157 180/88/156
f 176/84/152 182/90/158 177/85/153
f 176/84/152 155/63/131 182/90/158
f 177/85/153 183/91/159 178/86/154
f 177/85/153 182/90/158 183/91/159
f 178/86/154 183/91/159 184/92/160
f 179/87/155 185/93/161 155/63/131
f 179/87/155 180/88/156 185/93/161
f 182/90/158 155/63/131 186/94/162
f 182/90/158 186/94/162 183/91/159
f 185/93/161 187/95/163 155/63/131
f 180/88/156 181/89/157 188/96/164
f 180/88/156 188/96/164 185/93/161
f 185/93/161 188/96/164 187/95/163
f 181/89/157 189/97/165 188/96/164
f 183/91/159 190/98/166 184/92/160
f 183/91/159 186/94/162 190/98/166
f 184/92/160 190/98/166 191/99/167
f 188/96/164 189/97/165 192/100/168
f 188/96/164 192/100/168 187/95/163
f 189/97/165 193/101/169 192/100/168
f 187/95/163 192/100/168 194/102/170
f 187/95/163 194/102/170 155/63/131
f 192/100/168 193/101/169 195/103/171
f 192/100/168 195/103/171 194/102/170
f 193/101/169 196/104/172 195/103/171
f 194/102/170 195/103/171 197/105/173
f 194/102/170 197/105/173 155/63/131
f 195/103/171 196/104/172 198/106/174
f 195/103/171 198/106/174 197/105/173
f 196/104/172 199/107/175 198/106/174
f 200/108/176 197/105/173 198/106/174
f 200/108/176 155/63/131 197/105/173
f 201/109/177 198/106/174 199/107/175
f 201/109/177 200/108/176 198/106/174
f 202/110/178 201/109/177 199/107/175
f 203/111/179 200/108/176 201/109/177
f 203/111/179 155/63/131 200/108/176
f 204/112/180 201/109/177 202/110/178
f 204/112/180 203/111/179 201/109/177
f 205/113/181 204/112/180 202/110/178
f 206/114/182 155/63/131 203/111/179
f 206/114/182 203/111/179 204/112/180
f 207/115/183 204/112/180 205/113/181
f 207/115/183 206/114/182 204/112/180
f 191/99/167 207/115/183 205/113/181
f 190/98/166 207/115/183 191/99/167
f 190/98/166 206/114/182 207/115/183
f 208/118/184 155/63/131 206/114/182
f 190/98/166 208/118/184 206/114/182
f 186/94/162 155/63/131 208/118/184
f 186/94/162 208/118/184 190/98/166
